<?xml version="1.0" encoding="UTF-8"?><svg id="Layer_2" xmlns="http://www.w3.org/2000/svg" viewBox="0 0 895.3038 143.2103"><g id="Layer_1-2"><path d="m193.6801,29.8085h15.7142l.972,20.4123h.81c4.2121-14.7422,14.2562-23.0044,28.3504-23.0044,14.5802,0,24.9484,9.0722,27.7025,23.0044h1.296c4.212-14.7422,14.9042-23.0044,28.8364-23.0044,17.1723,0,28.5125,12.3122,28.5125,30.6185v55.5669h-16.3622v-50.2208c0-13.2842-7.6141-21.8703-19.4403-21.8703-13.2842,0-22.0323,11.3402-22.0323,28.8365v43.2547h-16.3623v-50.2208c0-13.2842-7.6141-21.8703-19.4403-21.8703-12.4742,0-21.8703,9.8822-21.8703,28.1884v43.9027h-16.5243l-.162-83.5933Zm145.3129,63.181c0-13.6082,8.5861-21.8703,26.4064-24.3004l36.7746-4.8601v-2.43c0-13.2842-7.6141-20.8983-22.1943-20.8983-13.4462,0-21.7083,6.8041-23.9764,18.9543h-16.5243c1.944-19.9263,17.3343-32.2385,40.5006-32.2385,23.8144,0,38.3946,12.3122,38.3946,32.5625v53.6228h-15.5522l-.648-22.0323h-.81c-4.05,16.8483-18.7923,24.6244-34.8306,24.6244-15.0662,0-27.5404-8.2621-27.5404-23.0044Zm32.4005,10.6922c17.9823,0,30.9425-13.9322,30.7805-29.4845l-31.9145,4.3741c-9.7202,1.296-14.5802,5.3461-14.5802,12.6362,0,7.6141,5.5081,12.4742,15.7143,12.4742Zm64.7992-73.8732h15.8763l.486,25.9204h.648c3.726-18.1443,13.2842-27.2164,34.8305-27.2164v14.2562c-11.8262.486-20.0883,3.078-25.7584,8.2621-6.9661,6.4801-9.7202,16.8483-9.7202,31.7525v30.6185h-16.3623V29.8085Zm90.8822-2.592c14.0942,0,25.1104,8.2621,30.4565,23.0044h.648l.648-20.4123h15.7143v113.4018h-16.3623v-50.0588h-.648c-5.3461,14.7422-16.3622,23.0044-30.4565,23.0044-22.5183,0-37.4226-17.6583-37.4226-44.3887,0-26.8924,14.9042-44.5507,37.4226-44.5507Zm5.1841,75.8172c15.7142,0,25.9204-11.9882,25.9204-26.8924v-8.9101c0-14.9042-10.2062-26.8924-25.9204-26.8924s-26.0824,12.4742-26.0824,31.4285c0,18.7923,10.3682,31.2665,26.0824,31.2665Zm52.6492-31.7525c0-26.8924,20.5743-44.0647,44.2267-44.0647s44.3887,17.1723,44.3887,44.0647c0,27.5404-20.7363,44.7127-44.3887,44.7127s-44.2267-17.1723-44.2267-44.7127Zm44.2267,31.1045c16.5242,0,27.7025-11.3402,27.7025-31.1045,0-19.2783-11.1782-30.4565-27.7025-30.4565-16.3622,0-27.5405,11.1782-27.5405,30.4565,0,19.7643,11.1782,31.1045,27.5405,31.1045Zm55.0805-31.1045c0-26.8924,20.5743-44.0647,44.2267-44.0647s44.3887,17.1723,44.3887,44.0647c0,27.5404-20.7363,44.7127-44.3887,44.7127s-44.2267-17.1723-44.2267-44.7127Zm44.2267,31.1045c16.5242,0,27.7025-11.3402,27.7025-31.1045,0-19.2783-11.1782-30.4565-27.7025-30.4565-16.3622,0-27.5405,11.1782-27.5405,30.4565,0,19.7643,11.1782,31.1045,27.5405,31.1045ZM802.9631,0v113.4018h-16.3622V0h16.3622Zm12.9594,92.9895c0-13.6082,8.5861-21.8703,26.4064-24.3004l36.7746-4.8601v-2.43c0-13.2842-7.6141-20.8983-22.1944-20.8983-13.4462,0-21.7083,6.8041-23.9763,18.9543h-16.5243c1.944-19.9263,17.3343-32.2385,40.5006-32.2385,23.8144,0,38.3947,12.3122,38.3947,32.5625v53.6228h-15.5522l-.648-22.0323h-.81c-4.0501,16.8483-18.7924,24.6244-34.8306,24.6244-15.0663,0-27.5405-8.2621-27.5405-23.0044Zm32.4005,10.6922c17.9823,0,30.9425-13.9322,30.7805-29.4845l-31.9145,4.3741c-9.7202,1.296-14.5803,5.3461-14.5803,12.6362,0,7.6141,5.5081,12.4742,15.7142,12.4742Z" fill="#00000f"/><path d="m115.0812,19.7389h-.4622c-19.0313.2898-30.1651,9.1432-41.9529,18.5251-3.4835,2.7674-7.065,5.6124-10.9905,8.3666l2.1323,2.0001c12.9331,12.1504,25.9893,23.06,43.5221,23.06,19.7508,0,30.701-2.2337,40.3594-4.2001,6.2012-1.2633,12.0663-2.4582,19.4935-2.9848.0898-.0061.1796-.0102.2684-.0102,1.1242,0,2.1717.5194,2.873,1.4133.7044.8908.9486,2.0521.6892,3.1542.1827-.5806.3582-1.1653.5288-1.7521.5126-1.7582-.33-3.6358-1.983-4.4083-5.965-2.8052-11.3599-9.782-17.0706-17.1659-9.4153-12.2014-20.0808-25.9978-37.4077-25.9978" fill="#0046dc"/><path d="m31.5259,27.6298c-.2456,0-.4912.005-.7387.0141-12.319.3523-19.6249,7.4448-26.0652,13.6958-1.1715,1.1343-2.336,2.2776-3.5347,3.3676-.8132.7528-1.252,1.8297-1.1796,2.9278.1087,1.718.2657,3.4219.471,5.1118.0775.6139.1621,1.2279.2536,1.8398.2094,1.4221.4559,2.8382.7367,4.2493.2798,1.409.5948,2.81.944,4.205.3503,1.3959.7317,2.7798,1.1504,4.1556.0856.2838.1731.5666.2617.8494-.2224-1.0004-.0231-2.0461.5666-2.8946.6602-.937,1.714-1.5147,2.8473-1.5671,27.3403-1.1494,42.4704-9.0037,52.6014-15.7158.8062-.5304,1.5972-1.0668,2.3742-1.6063l-.2959-.2748c-10.0545-9.3882-19.6611-18.3567-30.3929-18.3577" fill="#05bf87"/><path d="m62.215,46.2624c-.777.5395-1.5681,1.0759-2.3742,1.6063-10.131,6.7121-25.261,14.5664-52.6014,15.7158-1.1333.0523-2.188.63-2.8473,1.567-.5908.8484-.7901,1.8941-.5666,2.8946.0554.1761.1117.3523.1681.5284.2013.5425.4982,1.0578.8313,1.4221.6431.7106,1.5369,1.1343,2.488,1.1937,26.1759,1.5811,38.3268,11.1918,50.0832,20.4874,10.3413,8.1764,20.107,15.899,37.5418,15.899,15.753,0,30.0487-5.929,43.8834-11.6598,7.7296-3.2066,15.0193-6.2289,22.3393-8.1543,1.0538-.2778,1.8972-1.0246,2.3501-1.9757,1.1906-2.027,2.2897-4.0771,3.2931-6.1424,1.7331-3.6122,3.2277-7.3713,4.4586-11.2572.2587-1.087.0141-2.2323-.6884-3.111-.6985-.8817-1.7432-1.3939-2.8644-1.3939-.0886,0-.1781.003-.2677.0101-7.4085.5193-13.257,1.6979-19.4417,2.9429-9.6338,1.9394-20.5548,4.1426-40.2521,4.1426-17.4861,0-30.5077-10.76-43.4064-22.7429l-2.1266-1.9727Z" fill="#0118aa"/><path d="m161.1606,87.7626c-7.3199,1.9253-14.6097,4.9477-22.3393,8.1543-13.8347,5.7308-28.1304,11.6598-43.8834,11.6598-.0157,0-.0308-.0006-.0464-.0007-.024,0-.0479.0009-.0719.0009-17.4121,0-27.165-7.7225-37.4939-15.899-11.2412-8.9006-22.8536-18.0857-46.7681-20.2388-1.0601-.0952-2.1353-.1818-3.2447-.2488-.119-.0074-.2371-.0206-.354-.0393-.8173-.1294-1.5723-.5316-2.135-1.1542-.3327-.3643-.6292-.8796-.8303-1.4221.2925.9098.5991,1.8156.9207,2.7164.4845,1.3516,1.0001,2.6933,1.5499,4.0208.5488,1.3285,1.1298,2.644,1.7449,3.9423.6131,1.2993,1.2595,2.5836,1.9349,3.8507.6785,1.2671,1.3841,2.5192,2.1229,3.7521.7378,1.2319,1.5057,2.4477,2.3028,3.6423.7981,1.1947,1.6253,2.3702,2.4797,3.5236.8554,1.1554,1.7389,2.2887,2.6496,3.3998s1.8474,2.2001,2.8114,3.2639c.9649,1.0648,1.955,2.1065,2.9702,3.123,1.0142,1.0165,2.0535,2.0069,3.117,2.9731,1.0644.9642,2.152,1.9032,3.2617,2.8161,1.1087.9118,2.2405,1.7955,3.3934,2.652,1.1529.8555,2.3279,1.6848,3.521,2.4829s2.4063,1.567,3.6376,2.3058c1.2303.7388,2.4797,1.4473,3.7462,2.1256,1.2655.6773,2.547,1.3225,3.8457,1.9384,1.2976.6139,2.6104,1.1957,3.9361,1.7472,1.3268.5485,2.6646,1.0668,4.0176,1.5509,1.3519.4841,2.7139.936,4.0879,1.3527,1.3751.4167,2.7571.8001,4.1502,1.1504,1.3921.3482,2.7933.6633,4.2005.9441,1.4092.2808,2.8224.5254,4.2427.7367s2.8456.3865,4.2729.5284c1.4283.1409,2.8606.2466,4.294.316,1.3851.0685,2.7702.1047,4.1573.1067h.0181c.0432,0,.0854.001.1286.001.0422,0,.0834-.001.1257-.001h.2663c.007,0,.0131,0,.0201-.001,1.2987-.0061,2.5963-.0413,3.8929-.1057.0573-.003.1156-.006.1739-.0091,29.3205-1.5204,55.8048-17.875,70.6429-42.4602-.4138.372-.9111.6544-1.4704.8018Z" fill="#db72ff"/></g></svg>