<?xml version="1.0" encoding="UTF-8"?><svg id="Layer_2" xmlns="http://www.w3.org/2000/svg" viewBox="0 0 463.1943 296.2178"><g id="Layer_1-2"><path d="m310.4689,0h-1.2469c-51.3432.7819-81.3803,24.6667-113.1815,49.9775-9.398,7.4661-19.0601,15.1414-29.6505,22.5717l5.7526,5.3958c34.8912,32.7797,70.1146,62.2117,117.4149,62.2117,53.2843,0,82.8259-6.0263,108.8827-11.3313,16.7296-3.4082,32.5526-6.6319,52.5901-8.0524.2423-.0165.4846-.0275.7242-.0275,3.0328,0,5.8587,1.4013,7.7509,3.8129,1.9003,2.4034,2.5591,5.5362,1.8594,8.5094.4928-1.5664.9665-3.1439,1.4266-4.7269,1.383-4.7434-.8902-9.8089-5.3497-11.8928-16.0926-7.5679-30.6469-26.39-46.0534-46.3106C385.9876,37.2202,357.2138,0,310.4689,0" fill="#0046dc"/><path d="m85.0513,21.2883c-.6625,0-1.3251.0136-1.993.038-33.2345.9503-52.9444,20.0846-70.3192,36.949-3.1605,3.0601-6.3021,6.1446-9.5359,9.0852-2.194,2.031-3.3778,4.9363-3.1823,7.8986.2933,4.6349.7168,9.2318,1.2707,13.7907.2091,1.6563.4372,3.3126.6842,4.9635.5648,3.8366,1.23,7.657,1.9876,11.4637.7548,3.8013,1.6047,7.5809,2.5469,11.3443.9449,3.766,1.974,7.4995,3.1035,11.2112.2308.7657.467,1.5287.7059,2.2917-.6-2.6989-.0624-5.5201,1.5287-7.809,1.7812-2.5279,4.6241-4.0864,7.6814-4.2276,73.7594-3.1008,114.5776-24.2905,141.9092-42.3984,2.1749-1.4309,4.3091-2.8781,6.4053-4.3335l-.7983-.7413c-27.1252-25.3277-53.0422-49.5232-81.9948-49.5259" fill="#05bf87"/><path d="m167.8452,71.5558c-2.0962,1.4554-4.2303,2.9026-6.4053,4.3335-27.3316,18.1079-68.1498,39.2976-141.9092,42.3985-3.0574.1412-5.9029,1.6997-7.6814,4.2276-1.5938,2.2889-2.1315,5.1101-1.5287,7.809.1493.4752.3014.9503.4534,1.4255.543,1.4635,1.344,2.8537,2.2428,3.8366,1.735,1.917,4.1462,3.0601,6.7121,3.2203,70.6179,4.2656,103.399,30.1934,135.1157,55.2714,27.8991,22.0586,54.245,42.8926,101.2811,42.8926,42.4989,0,81.0662-15.9955,118.3898-31.456,20.853-8.6507,40.5195-16.8046,60.2674-21.9989,2.8428-.7494,5.1182-2.7641,6.3401-5.33,3.2121-5.4685,6.1772-10.9994,8.8842-16.5711,4.6756-9.745,8.7078-19.8864,12.0285-30.3699.6978-2.9325.038-6.0224-1.8572-8.3928-1.8844-2.3785-4.7028-3.7606-7.7275-3.7606-.2389,0-.4806.0081-.7223.0272-19.9868,1.4011-35.7651,4.5806-52.4503,7.9393-25.9902,5.2323-55.4533,11.1759-108.5932,11.1759-47.1746,0-82.3043-29.0286-117.1028-61.3562l-5.7373-5.3219Z" fill="#0118aa"/><path d="m434.783,183.5159c-19.7479,5.1943-39.4144,13.3481-60.2674,21.9988-37.3236,15.4606-75.8909,31.4561-118.3898,31.4561-.0423,0-.083-.0017-.1253-.0018-.0649,0-.1291.0023-.194.0023-46.9749,0-73.2865-20.834-101.152-42.8926-30.3267-24.0122-61.6549-48.792-126.172-54.6006-2.8599-.2569-5.7606-.4905-8.7535-.6713-.3211-.02-.6398-.0555-.955-.106-2.2049-.349-4.2417-1.4341-5.76-3.1138-.8976-.9829-1.6975-2.3731-2.2399-3.8366.7891,2.4546,1.6162,4.8983,2.484,7.3285,1.307,3.6465,2.6981,7.266,4.1814,10.8473,1.4806,3.5841,3.048,7.1329,4.7075,10.6356,1.6541,3.5054,3.3978,6.97,5.2201,10.3885,1.8304,3.4185,3.734,6.7963,5.7271,10.1225,1.9904,3.3234,4.0621,6.6034,6.2125,9.8264,2.1531,3.223,4.3848,6.3944,6.6898,9.5061,2.3076,3.1171,4.6912,6.1745,7.148,9.1721,2.4568,2.9976,4.9841,5.9355,7.5847,8.8055,2.6032,2.8727,5.2742,5.683,8.0131,8.4254,2.7361,2.7424,5.54,5.4142,8.409,8.0208,2.8717,2.6012,5.8058,5.1345,8.7995,7.5973,2.991,2.46,6.0444,4.844,9.1547,7.1546,3.1103,2.3079,6.2803,4.5454,9.4991,6.6985s6.4918,4.2276,9.8137,6.2206c3.3191,1.993,6.6898,3.9045,10.1065,5.7346,3.4141,1.8273,6.8715,3.5678,10.375,5.2296,3.5008,1.6563,7.0423,3.2257,10.619,4.7136,3.5795,1.4798,7.1887,2.8781,10.8387,4.1842,3.6472,1.306,7.3216,2.5251,11.0285,3.6493,3.7097,1.1241,7.4382,2.1586,11.1966,3.1035,3.7558.9395,7.5359,1.7894,11.3322,2.5469,3.8018.7576,7.6145,1.4174,11.4461,1.9875s7.6768,1.0426,11.5275,1.4255c3.8533.3802,7.7175.6652,11.5844.8526,3.7367.1847,7.4734.2824,11.2156.2878h.0488c.1165,0,.2305.0027.3471.0027.1139,0,.2251-.0027.339-.0027h.7186c.019,0,.0353,0,.0542-.0027,3.5036-.0163,7.0044-.1114,10.5025-.2852.1546-.0081.3118-.0163.4691-.0244,79.1015-4.1016,150.5516-48.2236,190.5822-114.5501-1.1164,1.0037-2.458,1.7653-3.9668,2.1631Z" fill="#db72ff"/></g></svg>