<?xml version="1.0" standalone="no"?>
<!DOCTYPE svg PUBLIC "-//W3C//DTD SVG 20010904//EN"
 "http://www.w3.org/TR/2001/REC-SVG-20010904/DTD/svg10.dtd">
<svg version="1.0" xmlns="http://www.w3.org/2000/svg"
 width="300.000000pt" height="300.000000pt" viewBox="0 0 300.000000 300.000000"
 preserveAspectRatio="xMidYMid meet">

<g transform="translate(0.000000,300.000000) scale(0.100000,-0.100000)"
fill="#000000" stroke="none">
<path d="M666 2731 c-3 -5 1 -11 9 -14 9 -4 12 -1 8 9 -6 16 -10 17 -17 5z"/>
<path d="M1295 2715 c-171 -32 -333 -97 -480 -193 -97 -64 -255 -220 -320
-316 -54 -79 -83 -146 -64 -146 5 0 9 5 9 11 0 5 4 8 8 5 5 -3 15 4 23 16 215
315 432 476 753 560 69 18 112 21 291 22 116 1 215 4 220 7 6 4 18 5 29 3 31
-5 4 13 -39 26 -65 19 -337 22 -430 5z"/>
<path d="M585 2674 c-88 -66 -197 -177 -275 -279 -407 -539 -402 -1275 13
-1814 60 -78 183 -199 263 -259 38 -28 72 -52 75 -52 4 0 9 9 12 20 3 11 1 18
-4 14 -5 -3 -9 1 -10 8 0 7 -36 42 -80 78 -177 144 -338 366 -424 585 -68 173
-95 321 -95 526 0 302 77 556 243 804 64 95 210 253 302 326 50 40 67 70 47
83 -4 2 -34 -16 -67 -40z"/>
<path d="M925 1896 c-148 -28 -260 -111 -318 -233 -28 -60 -32 -80 -35 -173
-3 -87 0 -115 17 -164 39 -111 101 -175 211 -217 96 -37 369 -39 405 -3 17 18
22 144 5 144 -5 0 -10 -9 -10 -19 0 -29 -46 -78 -87 -92 -21 -6 -66 -10 -107
-7 -114 8 -182 54 -228 153 -19 42 -23 71 -26 182 -6 190 28 290 116 347 90
59 245 54 310 -10 17 -17 32 -39 32 -48 0 -9 4 -16 9 -16 5 0 8 33 8 74 0 73
-1 74 -28 80 -69 13 -208 15 -274 2z"/>
<path d="M2035 1896 c-76 -16 -114 -36 -153 -80 -51 -59 -63 -123 -36 -203 21
-64 60 -103 174 -178 127 -83 142 -101 148 -170 4 -53 3 -56 -34 -93 -30 -30
-50 -41 -87 -46 -95 -14 -185 27 -209 95 -19 56 -31 32 -23 -48 4 -43 9 -80
12 -83 10 -10 281 -11 319 -1 102 28 164 96 171 193 10 129 -29 189 -190 286
-127 78 -147 101 -147 168 0 44 5 59 24 79 72 72 235 49 272 -40 22 -55 33
-41 29 37 -3 59 -8 73 -23 79 -39 15 -188 18 -247 5z"/>
<path d="M1374 1886 c66 -40 61 -10 64 -375 3 -363 -1 -394 -52 -407 -62 -15
-14 -24 134 -24 148 0 196 9 135 24 -13 3 -30 16 -36 27 -7 15 -12 128 -13
353 -1 299 1 334 16 358 10 15 27 29 38 33 11 3 20 11 20 16 0 6 -65 9 -162 8
-126 -1 -159 -4 -144 -13z"/>
<path d="M2431 1143 c0 -39 2 -44 9 -25 5 12 7 29 4 37 -4 10 0 15 11 15 11 0
15 -6 11 -18 -4 -10 0 -26 7 -36 12 -16 13 -13 13 21 0 40 -9 53 -38 53 -15 0
-18 -9 -17 -47z"/>
</g>
</svg>
