<?xml version="1.0" encoding="utf-8"?>
<!-- Generator: Adobe Illustrator 26.0.3, SVG Export Plug-In . SVG Version: 6.00 Build 0)  -->
<svg version="1.1" id="Layer_1" xmlns="http://www.w3.org/2000/svg" xmlns:xlink="http://www.w3.org/1999/xlink" x="0px" y="0px"
	 viewBox="0 0 60 60" style="enable-background:new 0 0 60 60;" xml:space="preserve">
<style type="text/css">
	.st0{fill:none;}
	.st1{fill-rule:evenodd;clip-rule:evenodd;fill:#143B8B;}
	.st2{fill:#143B8B;}
</style>
<g id="logo_x2F_certification_x2F_iso-27001">
	<rect id="_Transparent_Rectangle_" x="-33" class="st0" width="128" height="60"/>
	<path id="Combined-Shape" class="st1" d="M12.8,37.6c1,1.5,2.2,2.8,3.6,3.9c2.2-0.6,4.5-1,7.1-1.3c-0.3-0.8-0.5-1.7-0.8-2.6l0,0H24
		c0.2,0.9,0.5,1.7,0.7,2.5c1.7-0.1,3.4-0.2,5.2-0.2c1.9,0,3.7,0.1,5.5,0.2c0.3-0.8,0.5-1.6,0.8-2.5l0,0h1.4
		c-0.2,0.9-0.5,1.8-0.8,2.7c2.5,0.3,4.9,0.7,7,1.3c1.4-1.2,2.6-2.5,3.6-4l0,0h1.6c-4,6.3-11,10.4-19,10.4s-15-4.2-19-10.4l0,0H12.8z
		 M30,41.2c-1.6,0-3.2,0.1-4.7,0.2c1.4,3.3,3.2,5.4,4.9,5.4c1.7,0,3.5-2,4.9-5.3C33.4,41.3,31.7,41.2,30,41.2z M36.4,41.6
		c-0.8,2.1-1.9,3.8-3,4.9c3.3-0.5,6.5-2,9.1-3.9C40.7,42.1,38.6,41.8,36.4,41.6z M23.9,41.5c-2.2,0.2-4.3,0.6-6.2,1
		c2.6,1.9,5.8,3.4,9.2,3.9C25.8,45.4,24.7,43.6,23.9,41.5z M26,15.4c1.3,0,2.6,0.1,4.4,0.3l0,0H35v5.9h-4.7v-1.2
		c-0.7-0.4-2.3-0.8-4-0.8c-2.2,0-3,0.6-3,1.5c0,3.4,12.6-0.5,12.6,8.1c0,3.6-2.4,6.5-9.5,6.5c-1.3,0-2.9-0.2-4.6-0.4l0,0h-4.3v-5.3
		h4.3v0.8c0.7,0.4,2.3,0.8,4.2,0.8c2.4,0,3.4-0.6,3.4-1.5c0-3.2-12.4,0.5-12.4-8.1C16.8,17.3,20.5,15.4,26,15.4z M47.3,15.4
		C53.6,15.4,58,19,58,25.5s-4.5,10.1-10.7,10.1c-6.2,0-10.7-3.6-10.7-10.1S41.1,15.4,47.3,15.4z M15.6,15.9v4.7h-3.2v9.8h3.2v4.7H3
		v-4.7h3.2v-9.8H3v-4.7H15.6z M47.3,19.9c-2.5,0-4,1.6-4,5.5s1.6,5.5,4,5.5c2.5,0,4-1.6,4-5.5S49.8,19.9,47.3,19.9z M30.2,3
		c8,0,15,4.2,19,10.4l0,0h-1.6c-1-1.5-2.2-2.8-3.6-3.9c-2.1,0.6-4.5,1-7.1,1.3c0.3,0.8,0.5,1.7,0.8,2.6l0,0h-1.4
		c-0.2-0.9-0.5-1.7-0.7-2.5c-1.7,0.1-3.4,0.2-5.2,0.2c-1.9,0-3.7-0.1-5.5-0.2c-0.3,0.8-0.5,1.6-0.8,2.5l0,0h-1.4
		c0.2-0.9,0.5-1.8,0.8-2.7c-2.5-0.3-4.9-0.7-7-1.3c-1.4,1.2-2.6,2.5-3.6,4l0,0h-1.6C15.2,7.2,22.2,3,30.2,3z M30.2,4.3
		c-1.7,0-3.5,2-4.9,5.3c1.6,0.1,3.3,0.2,5,0.2c1.6,0,3.2-0.1,4.7-0.2C33.6,6.3,31.9,4.3,30.2,4.3z M33.4,4.5c1.1,1.1,2.2,2.8,3,5
		c2.2-0.2,4.3-0.6,6.2-1C40,6.5,36.8,5.1,33.4,4.5z M26.9,4.5c-3.3,0.5-6.5,2-9.1,3.9c1.9,0.5,4,0.8,6.1,1.1
		C24.7,7.3,25.8,5.6,26.9,4.5z"/>
	<g id="_x32_7001" transform="translate(57.432500, 52.135000)">
		<path id="_x32_" class="st2" d="M-30.3,3.9V3.5H-32c-0.1,0-0.2,0-0.4,0.1l0-0.1c0.2-0.1,0.2-0.2,0.3-0.2l0.6-0.5
			c0.6-0.5,1-1,1-1.6c0-0.7-0.5-1.1-1.2-1.1c-0.8,0-1.2,0.5-1.3,1.3h0.5c0-0.6,0.3-0.9,0.8-0.9c0.5,0,0.7,0.3,0.7,0.7
			c0,0.5-0.3,0.9-0.8,1.3l-1.2,1v0.4H-30.3z"/>
		<path id="_x37_" class="st2" d="M-29.2,3.9l1.8-3.4V0.1h-2.7v0.4h1.8c0.2,0,0.3,0,0.5-0.1l0,0.1c-0.2,0.1-0.2,0.2-0.3,0.4
			l-1.6,3.1H-29.2z"/>
		<path id="_x30_" class="st2" d="M-25.6,3.9c0.8,0,1.3-0.6,1.3-1.9c0-1.3-0.5-2-1.3-2c-0.8,0-1.3,0.6-1.3,2
			C-26.9,3.3-26.4,3.9-25.6,3.9z M-25.6,3.5c-0.5,0-0.9-0.5-0.9-1.5c0-1,0.3-1.5,0.8-1.5c0.5,0,0.9,0.5,0.9,1.6
			C-24.7,3-25.1,3.5-25.6,3.5z"/>
		<path id="_x30__00000051373067242035681900000007992046313189261479_" class="st2" d="M-22.3,3.9c0.8,0,1.3-0.6,1.3-1.9
			c0-1.3-0.5-2-1.3-2c-0.8,0-1.3,0.6-1.3,2C-23.6,3.3-23.1,3.9-22.3,3.9z M-22.3,3.5c-0.5,0-0.9-0.5-0.9-1.5c0-1,0.3-1.5,0.8-1.5
			c0.5,0,0.9,0.5,0.9,1.6C-21.4,3-21.8,3.5-22.3,3.5z"/>
		<path id="_x31_" class="st2" d="M-19,3.9V0.1h-0.5c-0.2,0.3-0.6,0.7-1.1,0.8v0.5c0.2-0.1,0.5-0.2,0.8-0.4c0.1-0.1,0.2-0.2,0.3-0.3
			l0.1,0c0,0.1,0,0.2,0,0.3v3H-19z"/>
	</g>
</g>
</svg>
